<?xml version="1.0" standalone="no"?>
<!DOCTYPE svg PUBLIC "-//W3C//DTD SVG 20010904//EN"
        "http://www.w3.org/TR/2001/REC-SVG-20010904/DTD/svg10.dtd">
<svg version="1.0" xmlns="http://www.w3.org/2000/svg"
     width="1084.000000pt" height="1084.000000pt" viewBox="0 0 1084.000000 1084.000000"
     preserveAspectRatio="xMidYMid meet">
    <metadata>
        Created by potrace 1.11, written by Peter Selinger 2001-2013
    </metadata>
    <g transform="translate(0.000000,1084.000000) scale(0.100000,-0.100000)"
       fill="#000000" stroke="none">
        <path d="M5240 10815 c-30 -7 -70 -20 -88 -28 -31 -13 -39 -12 -90 9 -72 30
-151 31 -207 4 -23 -11 -75 -50 -116 -88 -41 -37 -89 -80 -107 -94 -18 -15
-67 -78 -108 -140 -58 -85 -74 -117 -68 -132 4 -12 10 -84 13 -161 6 -143 8
-144 30 -20 l7 39 119 39 c152 48 262 67 445 76 112 6 129 9 75 11 -38 2 -86
5 -105 6 -81 6 -294 -18 -387 -42 -138 -37 -153 -39 -153 -22 0 24 222 99 380
129 108 21 318 16 447 -9 90 -18 348 -92 374 -108 6 -3 -9 -93 -16 -102 -1 -1
-28 7 -61 18 -103 36 -186 51 -299 55 l-110 4 105 -13 c182 -24 365 -83 356
-115 -2 -9 -8 -31 -11 -49 -6 -30 -10 -33 -33 -28 -81 16 -308 28 -532 29
-257 0 -394 -10 -524 -39 -39 -9 -77 -16 -84 -17 -37 -2 -49 -227 -18 -332 20
-68 56 -120 88 -131 13 -4 34 -18 48 -32 32 -32 97 -60 159 -68 80 -10 80 -11
47 -111 -26 -79 -35 -94 -89 -146 -75 -71 -144 -106 -239 -119 -40 -5 -102
-16 -137 -24 -74 -16 -218 -86 -243 -117 -10 -12 -22 -27 -28 -34 -15 -19
-109 -176 -185 -308 -37 -66 -88 -156 -113 -200 -76 -133 -305 -592 -360 -722
-31 -74 -75 -156 -111 -205 -32 -46 -114 -169 -183 -273 -69 -105 -161 -240
-204 -301 -53 -73 -98 -150 -133 -229 -86 -192 -142 -302 -165 -324 -23 -21
-188 -115 -221 -125 -17 -5 -28 10 -77 103 -56 105 -58 112 -58 185 0 87 -1
88 -101 101 -66 8 -131 -7 -176 -41 -41 -31 -83 -118 -90 -187 -6 -55 -5 -56
23 -62 106 -24 95 -14 168 -155 70 -135 72 -146 31 -180 -14 -11 -15 -27 -10
-99 5 -66 3 -96 -9 -130 l-16 -44 35 -63 c37 -66 65 -91 137 -124 52 -24 89
-25 128 -5 l30 15 25 -50 26 -51 -28 -33 c-15 -19 -108 -117 -206 -219 -160
-167 -177 -188 -167 -206 6 -12 17 -21 26 -21 8 0 114 47 236 105 122 58 224
105 228 105 4 0 96 -165 205 -367 261 -483 284 -525 405 -748 56 -104 207
-383 335 -620 128 -236 310 -574 406 -750 95 -176 250 -462 344 -637 l170
-316 -7 -164 c-8 -206 -24 -314 -50 -352 -12 -16 -23 -47 -25 -70 -5 -40 -4
-42 52 -84 32 -23 61 -42 66 -42 4 0 9 -12 11 -27 10 -86 216 -60 428 55 30
17 96 43 145 58 83 26 103 28 260 28 l170 1 105 -36 c73 -26 132 -39 192 -44
128 -10 161 -2 219 54 46 44 48 48 40 83 -5 20 -18 50 -30 67 -20 27 -20 34
-10 76 23 92 0 318 -62 623 -25 119 -27 103 51 612 123 810 144 947 190 1294
90 667 120 1032 120 1463 0 476 -36 779 -125 1061 -36 114 -106 259 -153 320
-22 28 -62 136 -62 166 0 2 15 7 33 10 37 7 80 47 96 88 6 15 17 72 26 125 9
54 22 118 29 143 9 33 10 76 4 165 -14 216 16 446 90 682 20 62 20 64 1 135
-10 39 -17 74 -14 76 5 5 313 -82 475 -133 194 -62 594 -165 640 -165 73 0
369 176 553 329 53 45 97 78 97 74 0 -8 -75 -242 -271 -845 l-100 -308 -54 0
c-65 0 -67 -7 -34 -96 43 -115 202 -236 363 -278 162 -43 360 -45 511 -7 215
55 387 198 420 349 l7 32 -47 0 c-28 0 -47 5 -50 13 -4 13 -157 551 -256 902
-32 116 -81 288 -107 383 l-49 172 689 0 c548 0 689 -3 685 -12 -2 -7 -109
-331 -238 -720 l-234 -708 -49 0 -49 0 7 -47 c25 -186 278 -342 580 -359 258
-15 491 59 628 198 43 44 98 148 98 186 0 20 -5 22 -58 22 l-58 0 -118 418
c-65 229 -129 455 -141 502 -13 47 -48 171 -78 275 -78 273 -76 243 -20 247
l48 3 -2 39 c-2 22 -6 43 -10 47 -5 4 -84 21 -178 39 -138 25 -598 120 -705
146 -25 6 -25 6 8 19 17 8 32 21 32 29 0 21 -57 76 -149 144 -42 31 -101 79
-131 107 -30 28 -77 66 -104 84 -47 33 -51 34 -90 22 -23 -6 -77 -21 -121 -32
-44 -11 -102 -32 -129 -47 -52 -29 -158 -136 -236 -241 -27 -36 -80 -89 -117
-117 -122 -93 -416 -272 -650 -396 l-112 -59 -133 49 c-73 28 -225 85 -338
127 l-205 78 -140 110 c-77 60 -158 118 -180 128 -37 16 -193 56 -548 140
l-138 33 -72 61 c-96 82 -129 131 -135 201 l-4 54 79 0 c136 0 199 33 227 121
8 24 26 76 40 114 13 39 29 113 35 165 l11 95 -40 58 -40 59 30 88 c57 167 40
250 -85 400 -170 203 -286 264 -435 225z m3373 -1879 c-78 -25 -99 -29 -86
-16 13 14 65 28 103 28 18 1 13 -3 -17 -12z m-4119 -255 c406 -229 926 -191
1416 102 93 56 94 57 50 17 -173 -155 -484 -294 -765 -342 -162 -27 -425 -22
-555 12 -107 28 -237 84 -315 135 -76 50 -239 208 -233 226 2 8 30 32 62 54
l58 40 102 -100 c70 -69 125 -114 180 -144z m5344 -38 c14 -58 343 -1226 378
-1345 5 -17 -21 -18 -451 -18 -362 0 -456 3 -452 13 2 6 46 140 96 297 51 157
153 470 227 696 74 226 134 416 134 422 0 7 11 12 24 12 21 0 26 -8 44 -77z
m-3737 -144 c-95 -369 -176 -599 -287 -809 -174 -329 -410 -567 -714 -720
-101 -51 -112 -50 -325 9 -78 21 -160 42 -183 46 -37 6 -42 10 -42 33 0 15 -9
69 -20 121 -11 52 -20 108 -20 124 l0 30 36 -37 c68 -70 250 -193 332 -226 28
-11 40 -10 95 10 223 81 451 252 628 472 208 257 372 589 501 1017 24 78 44
137 46 133 1 -5 -20 -96 -47 -203z m2153 99 c9 -29 72 -253 141 -498 69 -245
151 -530 181 -634 29 -104 54 -196 54 -203 0 -11 -87 -13 -465 -13 -365 0
-465 3 -465 12 0 7 95 299 211 648 l211 635 54 53 c30 28 57 52 59 52 3 0 11
-24 19 -52z m-4056 -838 c12 -47 46 -186 77 -310 l55 -226 -15 -84 c-19 -106
-19 -151 -1 -194 16 -38 69 -75 121 -83 19 -3 38 -10 41 -14 3 -5 -78 -176
-181 -379 l-186 -370 -14 -137 c-80 -743 -5 -1740 229 -3059 31 -170 60 -333
66 -363 23 -121 37 -147 -385 679 -141 278 -290 568 -330 645 -40 77 -123 239
-185 360 -62 121 -152 297 -200 390 -48 94 -154 300 -235 459 l-148 289 94 91
c52 49 129 123 172 164 70 67 77 78 77 113 0 21 -4 40 -10 44 -5 3 -59 -17
-120 -45 -193 -88 -382 -171 -384 -168 -1 2 -10 15 -19 30 -22 36 -21 48 3 48
27 0 45 33 65 120 52 231 65 276 100 325 49 71 146 188 285 340 267 294 374
449 413 597 11 41 47 104 138 239 240 357 438 620 450 597 3 -7 16 -51 27 -98z
m1779 -82 c-3 -8 -6 -5 -6 6 -1 11 2 17 5 13 3 -3 4 -12 1 -19z m-22 -120
c-52 -262 -130 -416 -271 -531 l-56 -46 -111 6 c-62 3 -120 9 -130 12 -13 5
11 21 89 60 277 141 399 276 466 518 28 101 35 92 13 -19z m-1462 -1146 c48
-34 156 -106 240 -159 83 -53 191 -123 239 -156 l88 -60 36 25 c20 15 95 79
168 144 190 171 181 163 167 139 -43 -77 -184 -224 -347 -362 -98 -84 -184
-153 -190 -153 -41 0 -219 169 -291 275 -38 56 -223 374 -223 382 0 6 14 -4
113 -75z m1446 -772 c3 -472 -44 -1202 -119 -1847 -73 -622 -177 -1146 -320
-1602 -57 -183 -154 -440 -173 -457 -10 -9 -451 -65 -507 -64 -8 0 15 18 52
39 215 126 365 303 513 606 263 538 412 1343 490 2640 12 207 40 845 47 1055
3 133 16 -128 17 -370z m-3023 -520 c163 -343 186 -391 257 -540 41 -85 96
-200 122 -255 103 -216 479 -1004 799 -1673 294 -616 377 -804 361 -820 -2 -3
-101 191 -218 429 -118 239 -366 740 -552 1114 -624 1257 -915 1847 -915 1856
0 11 52 50 63 46 5 -1 43 -72 83 -157z m1494 -1575 c85 -413 108 -507 171
-700 60 -181 171 -415 198 -415 10 0 73 11 140 25 66 13 151 28 188 31 l67 7
-31 -39 c-93 -117 -314 -284 -376 -284 -13 0 -62 105 -135 290 -89 225 -175
555 -232 885 -25 151 -80 562 -79 595 1 34 7 10 89 -395z m1526 -617 c-12
-143 -35 -281 -112 -664 -103 -514 -101 -460 -15 -627 39 -76 71 -145 71 -154
0 -9 -25 8 -64 45 -69 64 -108 82 -228 103 -38 7 -68 16 -68 21 0 5 16 40 35
78 131 260 254 662 357 1168 12 61 25 112 27 112 2 0 1 -37 -3 -82z"/>
        <path d="M797 6509 c-129 -173 -176 -307 -184 -522 -4 -82 -1 -176 6 -230 15
-113 60 -339 70 -349 3 -4 19 9 35 29 28 35 29 41 48 256 10 121 21 223 23
226 3 2 6 -92 7 -210 0 -118 2 -218 3 -224 2 -5 3 -20 4 -33 1 -15 5 -21 12
-16 9 5 10 -1 5 -22 -15 -65 -18 -205 -6 -266 23 -120 24 -120 116 68 46 93
83 163 84 157 0 -7 -25 -83 -56 -169 -54 -150 -56 -157 -44 -200 7 -24 16 -44
19 -44 8 0 117 129 164 195 55 77 115 211 133 295 25 117 10 323 -31 438 -8
21 -55 -13 -153 -110 -47 -45 -82 -74 -79 -63 29 97 34 285 12 433 -19 131
-98 399 -124 425 -5 5 -32 -22 -64 -64z"/>
        <path d="M9545 6563 c-45 -112 -94 -289 -116 -418 -16 -102 -14 -297 5 -378 9
-38 16 -71 16 -74 0 -3 -27 23 -59 59 -53 57 -159 148 -173 148 -10 0 -37
-115 -48 -205 -12 -91 -7 -182 12 -265 27 -113 130 -291 241 -415 l54 -59 15
45 15 45 -58 164 c-33 90 -57 165 -54 168 2 2 41 -71 86 -164 l81 -169 14 33
c26 61 37 175 25 255 -6 39 -14 83 -17 97 -6 21 -4 23 7 13 7 -7 17 -13 21
-13 4 0 9 107 9 238 l2 237 19 -215 c20 -210 21 -216 50 -252 16 -21 33 -38
37 -38 5 0 15 35 24 78 43 201 51 269 51 442 1 193 -14 273 -74 406 -31 69
-116 197 -154 233 -22 21 -24 21 -31 4z"/>
        <path d="M441 5458 c-81 -274 -65 -468 60 -728 58 -122 200 -353 210 -342 4 4
12 23 18 42 10 32 5 62 -45 259 -30 123 -54 224 -52 226 2 2 41 -100 87 -226
47 -126 88 -229 91 -229 4 0 12 12 18 28 33 85 37 113 36 237 -1 112 -5 143
-28 220 -36 117 -101 250 -180 364 -65 94 -171 221 -185 221 -5 0 -18 -33 -30
-72z"/>
        <path d="M9889 5478 c-226 -263 -340 -518 -341 -757 -1 -94 18 -196 46 -249
13 -25 25 1 143 331 20 54 38 96 40 93 2 -2 -19 -97 -47 -210 -51 -204 -56
-254 -31 -294 11 -18 105 124 187 283 151 291 175 507 88 778 -14 42 -29 77
-33 77 -4 0 -27 -24 -52 -52z"/>
        <path d="M1200 5077 c-132 -104 -236 -245 -288 -389 -23 -63 -26 -89 -27 -193
0 -112 16 -215 35 -215 4 0 43 74 86 164 43 90 81 163 83 161 2 -2 -22 -79
-53 -170 -54 -154 -57 -168 -45 -203 6 -20 14 -41 16 -45 13 -23 189 214 244
328 60 125 72 188 66 340 -5 128 -30 255 -52 262 -5 1 -35 -17 -65 -40z"/>
        <path d="M9127 5063 c-82 -295 -15 -539 224 -821 l54 -64 12 29 c20 47 15 73
-42 242 -30 89 -55 165 -54 169 0 4 38 -71 84 -166 46 -96 88 -171 93 -168 17
10 37 130 36 211 -2 145 -53 283 -155 419 -51 67 -203 206 -225 206 -6 0 -19
-26 -27 -57z"/>
        <path d="M434 4404 c-12 -83 2 -312 25 -392 30 -104 104 -248 180 -349 84
-112 333 -369 349 -359 7 4 12 28 12 53 0 39 -14 73 -84 208 -46 88 -97 183
-113 210 -30 51 -45 85 -39 85 2 0 72 -101 155 -225 84 -124 156 -225 161
-225 4 0 24 -25 43 -57 35 -56 35 -56 41 -27 3 16 17 90 30 164 14 74 32 169
40 210 l15 75 -4 -95 c-18 -385 -18 -373 4 -407 11 -18 25 -33 30 -33 5 0 29
48 54 108 165 390 168 607 14 905 -28 53 -56 102 -62 107 -14 12 -117 -141
-163 -241 -30 -65 -74 -194 -87 -254 -6 -29 -8 -27 -45 43 -88 168 -275 366
-479 505 -29 20 -57 37 -62 37 -4 0 -11 -21 -15 -46z"/>
        <path d="M9848 4374 c-183 -136 -351 -322 -430 -479 l-30 -59 -19 72 c-36 142
-127 330 -205 427 l-25 30 -21 -25 c-35 -42 -117 -222 -138 -305 -27 -107 -27
-279 0 -393 30 -125 138 -402 158 -402 14 0 61 86 57 105 -7 30 -35 428 -31
432 6 6 19 -62 58 -279 18 -104 35 -188 38 -188 3 0 19 22 35 50 17 27 35 50
40 50 6 1 75 98 154 216 80 118 150 219 158 225 7 6 -15 -38 -48 -98 -32 -59
-88 -164 -122 -233 -57 -112 -63 -130 -59 -172 2 -27 8 -48 14 -48 16 0 228
218 304 312 200 250 277 492 248 777 -5 40 -11 61 -20 61 -7 0 -59 -34 -116
-76z"/>
        <path d="M1406 3502 c-17 -30 -31 -182 -31 -347 1 -176 3 -197 28 -290 35
-126 87 -229 150 -300 49 -56 131 -119 145 -113 5 2 -13 104 -39 228 -27 124
-47 230 -45 235 2 6 33 -83 70 -197 57 -176 72 -211 97 -233 56 -46 59 -41 59
118 0 401 -87 639 -297 812 -77 63 -130 97 -137 87z"/>
        <path d="M8930 3462 c-89 -67 -191 -177 -235 -257 -88 -157 -126 -381 -117
-687 2 -65 11 -70 55 -34 23 18 42 62 97 222 38 109 69 194 69 187 1 -7 -16
-92 -38 -190 -51 -233 -54 -253 -42 -253 12 0 98 65 134 102 142 146 215 432
188 732 -13 137 -28 226 -39 226 -4 0 -36 -22 -72 -48z"/>
        <path d="M570 3413 c0 -47 31 -197 55 -268 71 -213 194 -368 420 -530 87 -62
291 -185 307 -185 16 0 -2 102 -21 125 -10 11 -75 85 -146 165 -181 204 -183
207 -160 190 18 -13 262 -231 355 -317 57 -53 59 -47 34 75 -32 154 -112 289
-248 420 -132 127 -322 242 -524 318 -75 29 -72 28 -72 7z"/>
        <path d="M9781 3409 c-239 -85 -494 -255 -623 -417 -96 -120 -175 -314 -166
-404 3 -29 7 -26 157 109 242 217 251 225 251 218 0 -3 -73 -87 -162 -186 -90
-99 -166 -188 -170 -197 -9 -22 -10 -102 -1 -102 12 0 168 94 272 164 121 82
264 213 327 302 90 127 158 308 171 462 3 39 4 72 2 71 -2 0 -28 -9 -58 -20z"/>
        <path d="M2022 2798 c-39 -213 -39 -478 -2 -652 39 -181 104 -307 211 -415 67
-67 149 -122 149 -101 0 7 -22 116 -49 244 -69 323 -69 334 -1 136 118 -338
110 -320 153 -351 22 -16 44 -29 50 -29 15 0 1 407 -17 515 -43 251 -114 401
-262 549 -60 60 -196 166 -214 166 -4 0 -12 -28 -18 -62z"/>
        <path d="M8279 2795 c-205 -153 -312 -325 -369 -592 -17 -78 -23 -147 -27
-335 -3 -131 -3 -238 1 -238 14 0 85 53 91 68 4 9 38 105 75 212 37 107 75
213 84 235 l16 40 -6 -40 c-3 -22 -28 -139 -55 -260 -27 -121 -52 -230 -54
-242 -7 -31 4 -29 56 8 225 160 331 417 330 799 0 172 -29 410 -49 410 -4 0
-46 -29 -93 -65z"/>
        <path d="M962 2422 l-22 -7 30 -64 c79 -166 216 -330 348 -415 130 -85 301
-148 515 -190 176 -35 242 -42 235 -25 -39 98 -32 91 -156 159 -256 139 -333
182 -329 186 2 2 26 -6 53 -18 129 -57 459 -187 463 -182 9 9 -67 147 -110
199 -170 206 -454 328 -825 355 -153 11 -169 11 -202 2z"/>
        <path d="M9295 2424 c-115 -8 -255 -27 -326 -45 -298 -74 -512 -227 -618 -444
-17 -35 -31 -66 -31 -70 0 -11 16 -5 274 104 132 56 241 99 243 97 2 -2 -72
-44 -164 -94 -293 -157 -283 -150 -309 -209 l-23 -53 22 0 c32 0 251 38 321
56 381 95 600 262 753 572 20 40 34 75 30 78 -7 8 -109 12 -172 8z"/>
        <path d="M2580 2006 c0 -42 51 -240 90 -351 118 -333 322 -559 559 -620 113
-29 113 -31 -20 175 -155 238 -182 283 -170 275 6 -3 79 -90 163 -193 84 -103
156 -190 161 -193 11 -8 99 -21 104 -16 4 5 -39 127 -82 232 -135 326 -270
504 -465 613 -62 35 -209 86 -287 100 l-53 9 0 -31z"/>
        <path d="M7815 2033 c-329 -51 -541 -216 -709 -550 -45 -91 -110 -246 -147
-351 l-18 -54 42 7 c23 4 49 8 58 11 9 2 83 86 165 185 82 100 160 193 173
208 l23 26 -18 -30 c-10 -16 -80 -126 -157 -244 -76 -117 -136 -215 -133 -218
3 -3 29 -1 58 5 276 55 477 277 607 667 37 110 86 318 79 334 -2 4 -12 5 -23
4z"/>
        <path d="M1823 1570 c-156 -14 -235 -30 -229 -47 18 -46 122 -180 201 -258
205 -204 454 -290 878 -302 103 -3 187 -3 187 1 0 3 -12 28 -27 56 -22 39 -37
53 -68 64 -534 193 -589 217 -348 151 169 -45 444 -107 450 -101 9 9 -72 121
-127 176 -197 195 -542 293 -917 260z"/>
        <path d="M8315 1570 c-262 -24 -476 -110 -634 -254 -44 -41 -145 -176 -137
-184 5 -5 310 64 475 107 63 17 116 29 118 27 2 -2 -53 -24 -122 -50 -69 -25
-182 -67 -252 -93 -134 -50 -157 -65 -193 -127 l-23 -39 194 6 c509 15 785
138 1016 451 40 55 73 105 73 112 0 15 -94 32 -245 45 -121 10 -152 10 -270
-1z"/>
        <path d="M3416 1531 c-7 -11 53 -228 84 -306 122 -308 283 -488 505 -565 50
-18 50 -18 20 -25 -143 -33 -194 -49 -285 -89 -149 -66 -345 -191 -345 -219 0
-15 105 -88 180 -126 149 -75 250 -96 413 -88 144 7 276 42 459 123 71 31 136
58 146 61 15 5 17 -4 17 -99 0 -137 8 -150 93 -146 54 3 63 6 74 28 9 19 13
106 13 338 0 378 1 372 -90 372 -89 0 -90 -3 -90 -233 l0 -189 -26 17 c-23 15
-41 16 -182 6 -87 -6 -202 -13 -257 -16 l-100 -5 75 15 c41 9 158 31 260 51
245 46 229 39 178 80 -91 72 -209 113 -369 129 l-56 6 -147 205 c-82 113 -147
207 -145 208 4 3 257 -271 299 -323 10 -12 34 -21 68 -24 28 -3 52 -5 52 -3 0
2 -18 48 -41 101 -162 390 -326 581 -575 672 -67 24 -222 54 -228 44z"/>
        <path d="M6917 1523 c-334 -57 -534 -254 -722 -711 -21 -51 -36 -94 -34 -96 2
-2 26 -2 52 1 47 6 50 8 179 152 145 161 195 214 182 191 -18 -34 -296 -410
-302 -410 -4 0 -43 -4 -87 -9 -116 -14 -202 -44 -291 -102 -69 -45 -76 -53
-59 -60 11 -5 137 -31 280 -58 143 -27 244 -50 225 -50 -19 -1 -135 6 -258 15
l-224 16 -36 -26 -37 -26 -5 207 c-6 249 -7 253 -85 253 -89 0 -85 18 -85
-371 0 -216 4 -347 10 -360 9 -15 22 -19 71 -19 59 0 60 1 75 35 9 22 14 69
14 129 l0 95 83 -38 c258 -119 401 -161 577 -168 143 -6 241 12 359 67 69 33
231 137 231 148 -1 8 -17 21 -120 89 -146 98 -348 185 -495 214 l-60 11 68 23
c259 88 460 363 557 762 12 50 20 96 19 101 -2 5 -38 3 -82 -5z"/>
        <path d="M2935 944 c-44 -8 -116 -26 -160 -40 -113 -37 -291 -112 -306 -130
-11 -13 -1 -26 62 -85 199 -187 381 -258 634 -246 141 6 390 58 524 108 l24
10 -43 39 -43 40 -251 25 c-137 14 -252 27 -254 29 -2 2 106 7 240 11 134 4
261 10 282 14 l39 6 -69 63 c-84 78 -200 136 -309 157 -95 18 -263 18 -370 -1z"/>
        <path d="M7106 945 c-38 -8 -101 -30 -140 -48 -76 -37 -187 -115 -211 -150
-15 -21 -14 -22 17 -29 17 -3 144 -10 282 -14 138 -4 247 -8 241 -10 -5 -2
-122 -15 -260 -29 l-250 -26 -32 -31 c-18 -18 -33 -37 -33 -44 0 -12 88 -40
250 -79 406 -96 659 -39 915 206 l79 77 -64 32 c-89 45 -256 107 -354 131
-108 27 -343 34 -440 14z"/>
        <path d="M5366 758 c-14 -19 -16 -70 -16 -356 0 -211 4 -340 10 -353 9 -15 22
-19 71 -19 59 0 60 1 75 35 11 27 14 96 14 340 0 373 -1 375 -84 375 -45 0
-58 -4 -70 -22z"/>
        <path d="M4889 733 c-11 -13 -15 -85 -17 -351 -3 -396 -7 -382 89 -382 59 0
60 1 75 35 11 27 14 96 14 339 0 298 -5 350 -33 368 -23 15 -114 9 -128 -9z"/>
        <path d="M5119 733 c-11 -13 -15 -85 -17 -351 -3 -396 -7 -382 89 -382 91 0
91 -2 87 390 -3 370 -1 360 -93 360 -37 0 -57 -5 -66 -17z"/>
    </g>
</svg>
